<svg height='50px' width='50px'  
fill="gray" xmlns:x="http://ns.adobe.com/Extensibility/1.0/" 
xmlns:i="http://ns.adobe.com/AdobeIllustrator/10.0/" 
xmlns:graph="http://ns.adobe.com/Graphs/1.0/" 
xmlns="http://www.w3.org/2000/svg" 
xmlns:xlink="http://www.w3.org/1999/xlink" 
version="1.1" x="0px" y="0px" viewBox="0 0 100 100" 
style="enable-background:new 0 0 100 100;" 
xml:space="preserve"><g><g i:extraneous="self"><g><path d="M2.5,50c0,26.2,21.3,47.5,47.5,47.5c26.2,0,47.5-21.3,47.5-47.5S76.2,2.5,50,2.5C23.8,2.5,2.5,23.8,2.5,50z M88.6,50     c0,21.3-17.3,38.6-38.6,38.6S11.4,71.3,11.4,50c0-21.3,17.3-38.6,38.6-38.6S88.6,28.7,88.6,50z"></path><path d="M28.5,52c-1.7,1.7-1.7,4.6,0,6.3c1.7,1.7,4.6,1.7,6.3,0L50,43.1l15.2,15.2c1.7,1.7,4.6,1.7,6.3,0c0.9-0.9,1.3-2,1.3-3.2     c0-1.1-0.4-2.3-1.3-3.2L53.2,33.6c-0.8-0.8-2-1.3-3.2-1.3c-1.2,0-2.3,0.5-3.2,1.3L28.5,52z"></path></g></g></g>

<g>
  <title>background</title>
  <rect fill="#fff" id="canvas_background" height="402" width="302" y="-1" x="-1"/>
  <g display="none" overflow="visible" y="0" x="0" height="100%" width="100%" id="canvasGrid">
   <rect fill="url(#gridpattern)" stroke-width="0" y="0" x="0" height="100%" width="100%"/>
  </g>
 </g>
 <g>
  <title>Layer 1</title>
  <g stroke="null" transform="rotate(179.9458770751953 154.57943725585938,196.70523071289062) " id="svg_6">
   <path stroke="null" id="svg_5" d="m269.376855,114.145683c-0.608825,-59.782295 -52.020752,-108.845885 -114.79742,-108.845885s-114.120947,49.063591 -114.79742,108.845885c-7.576494,5.359352 -12.041214,13.781191 -12.041214,22.713444l0,1.212234c0,15.567641 13.326512,28.710814 30.441272,28.710814l7.982378,0l79.553191,213.544653c1.894124,4.785136 6.967669,7.783821 12.041214,7.783821c5.682371,0 10.147091,-3.572901 12.041214,-7.783821l76.509064,-213.544653l4.667662,0c16.505934,0 30.441272,-13.143173 30.441272,-29.28503l0,-0.574216c0,-8.996055 -4.397073,-17.354092 -12.041214,-22.777246zm-112.226823,225.539393l-64.061966,-172.839099l126.229808,0l-62.167842,172.839099zm98.291485,-202.187931c0,2.424469 -1.894124,4.785136 -5.073545,4.785136l-192.185898,0c-2.570596,0 -5.073545,-1.786451 -5.073545,-4.785136l0,-0.574216c0,-2.424469 1.894124,-4.210919 3.788247,-4.785136c5.073545,-1.786451 8.861793,-6.571586 8.252967,-11.99474c0,-1.786451 0,-3.572901 0,-5.359352c0,-47.27714 39.979537,-85.558225 89.429693,-85.558225s89.429693,38.281085 88.75322,85.558225c0,1.786451 0,3.572901 0,5.359352c-0.608825,5.359352 2.570596,10.144488 8.252967,11.99474c1.894124,0.574216 3.788247,2.424469 3.788247,4.785136l0,0.574216l0.067647,0z" fill="#ffffff"/>
  </g>
  <text stroke="#000" transform="matrix(3.469598316037299,0,0,3.142125665662985,-710.6215934409507,-611.5939884589508) " font-weight="bold" xml:space="preserve" text-anchor="start" font-family="'Courier New', Courier, monospace" font-size="35" id="svg_7" y="297.086653" x="228.383313" stroke-width="0" fill="#ffffff">up</text>
  <ellipse ry="0.526316" rx="0.526316" id="svg_9" cy="57.894611" cx="362.631767" stroke-width="1.5" stroke="#000" fill="#ffffff"/>
 </g>

</svg>